<svg xmlns="http://www.w3.org/2000/svg" width="100%" height="100%" viewBox="0 0 552 456" preserveAspectRatio="xMidYMid meet" role="img" aria-label="Cidadela Arcana r1"><rect width="100%" height="100%" fill="#07111f"/><rect x="12" y="12" width="46" height="46" rx="4" fill="#797b7d"/><rect x="60" y="12" width="46" height="46" rx="4" fill="#797b7d"/><rect x="108" y="12" width="46" height="46" rx="4" fill="#797b7d"/><rect x="156" y="12" width="46" height="46" rx="4" fill="#797b7d"/><rect x="204" y="12" width="46" height="46" rx="4" fill="#797b7d"/><rect x="252" y="12" width="46" height="46" rx="4" fill="#22d3ee"/><rect x="300" y="12" width="46" height="46" rx="4" fill="#797b7d"/><rect x="348" y="12" width="46" height="46" rx="4" fill="#797b7d"/><rect x="396" y="12" width="46" height="46" rx="4" fill="#797b7d"/><rect x="444" y="12" width="46" height="46" rx="4" fill="#797b7d"/><rect x="492" y="12" width="46" height="46" rx="4" fill="#797b7d"/><rect x="12" y="60" width="46" height="46" rx="4" fill="#797b7d"/><rect x="60" y="60" width="46" height="46" rx="4" fill="#163656"/><rect x="108" y="60" width="46" height="46" rx="4" fill="#10233d"/><rect x="156" y="60" width="46" height="46" rx="4" fill="#10233d"/><rect x="204" y="60" width="46" height="46" rx="4" fill="#10233d"/><rect x="252" y="60" width="46" height="46" rx="4" fill="#143152"/><rect x="300" y="60" width="46" height="46" rx="4" fill="#10233d"/><rect x="348" y="60" width="46" height="46" rx="4" fill="#10233d"/><rect x="396" y="60" width="46" height="46" rx="4" fill="#10233d"/><rect x="444" y="60" width="46" height="46" rx="4" fill="#163656"/><rect x="492" y="60" width="46" height="46" rx="4" fill="#797b7d"/><rect x="12" y="108" width="46" height="46" rx="4" fill="#797b7d"/><rect x="60" y="108" width="46" height="46" rx="4" fill="#10233d"/><rect x="108" y="108" width="46" height="46" rx="4" fill="#cf7b45"/><rect x="156" y="108" width="46" height="46" rx="4" fill="#797b7d"/><rect x="204" y="108" width="46" height="46" rx="4" fill="#cf7b45"/><rect x="252" y="108" width="46" height="46" rx="4" fill="#143152"/><rect x="300" y="108" width="46" height="46" rx="4" fill="#cf7b45"/><rect x="348" y="108" width="46" height="46" rx="4" fill="#797b7d"/><rect x="396" y="108" width="46" height="46" rx="4" fill="#cf7b45"/><rect x="444" y="108" width="46" height="46" rx="4" fill="#10233d"/><rect x="492" y="108" width="46" height="46" rx="4" fill="#797b7d"/><rect x="12" y="156" width="46" height="46" rx="4" fill="#797b7d"/><rect x="60" y="156" width="46" height="46" rx="4" fill="#10233d"/><rect x="108" y="156" width="46" height="46" rx="4" fill="#797b7d"/><rect x="156" y="156" width="46" height="46" rx="4" fill="#797b7d"/><rect x="204" y="156" width="46" height="46" rx="4" fill="#797b7d"/><rect x="252" y="156" width="46" height="46" rx="4" fill="#cf7b45"/><rect x="300" y="156" width="46" height="46" rx="4" fill="#797b7d"/><rect x="348" y="156" width="46" height="46" rx="4" fill="#797b7d"/><rect x="396" y="156" width="46" height="46" rx="4" fill="#797b7d"/><rect x="444" y="156" width="46" height="46" rx="4" fill="#10233d"/><rect x="492" y="156" width="46" height="46" rx="4" fill="#797b7d"/><rect x="12" y="204" width="46" height="46" rx="4" fill="#22d3ee"/><rect x="60" y="204" width="46" height="46" rx="4" fill="#143152"/><rect x="108" y="204" width="46" height="46" rx="4" fill="#cf7b45"/><rect x="156" y="204" width="46" height="46" rx="4" fill="#797b7d"/><rect x="204" y="204" width="46" height="46" rx="4" fill="#cf7b45"/><rect x="252" y="204" width="46" height="46" rx="4" fill="#143152"/><rect x="300" y="204" width="46" height="46" rx="4" fill="#cf7b45"/><rect x="348" y="204" width="46" height="46" rx="4" fill="#797b7d"/><rect x="396" y="204" width="46" height="46" rx="4" fill="#cf7b45"/><rect x="444" y="204" width="46" height="46" rx="4" fill="#143152"/><rect x="492" y="204" width="46" height="46" rx="4" fill="#22d3ee"/><rect x="12" y="252" width="46" height="46" rx="4" fill="#797b7d"/><rect x="60" y="252" width="46" height="46" rx="4" fill="#10233d"/><rect x="108" y="252" width="46" height="46" rx="4" fill="#797b7d"/><rect x="156" y="252" width="46" height="46" rx="4" fill="#797b7d"/><rect x="204" y="252" width="46" height="46" rx="4" fill="#797b7d"/><rect x="252" y="252" width="46" height="46" rx="4" fill="#cf7b45"/><rect x="300" y="252" width="46" height="46" rx="4" fill="#797b7d"/><rect x="348" y="252" width="46" height="46" rx="4" fill="#797b7d"/><rect x="396" y="252" width="46" height="46" rx="4" fill="#797b7d"/><rect x="444" y="252" width="46" height="46" rx="4" fill="#10233d"/><rect x="492" y="252" width="46" height="46" rx="4" fill="#797b7d"/><rect x="12" y="300" width="46" height="46" rx="4" fill="#797b7d"/><rect x="60" y="300" width="46" height="46" rx="4" fill="#10233d"/><rect x="108" y="300" width="46" height="46" rx="4" fill="#cf7b45"/><rect x="156" y="300" width="46" height="46" rx="4" fill="#797b7d"/><rect x="204" y="300" width="46" height="46" rx="4" fill="#cf7b45"/><rect x="252" y="300" width="46" height="46" rx="4" fill="#143152"/><rect x="300" y="300" width="46" height="46" rx="4" fill="#cf7b45"/><rect x="348" y="300" width="46" height="46" rx="4" fill="#797b7d"/><rect x="396" y="300" width="46" height="46" rx="4" fill="#cf7b45"/><rect x="444" y="300" width="46" height="46" rx="4" fill="#10233d"/><rect x="492" y="300" width="46" height="46" rx="4" fill="#797b7d"/><rect x="12" y="348" width="46" height="46" rx="4" fill="#797b7d"/><rect x="60" y="348" width="46" height="46" rx="4" fill="#163656"/><rect x="108" y="348" width="46" height="46" rx="4" fill="#10233d"/><rect x="156" y="348" width="46" height="46" rx="4" fill="#10233d"/><rect x="204" y="348" width="46" height="46" rx="4" fill="#10233d"/><rect x="252" y="348" width="46" height="46" rx="4" fill="#143152"/><rect x="300" y="348" width="46" height="46" rx="4" fill="#10233d"/><rect x="348" y="348" width="46" height="46" rx="4" fill="#10233d"/><rect x="396" y="348" width="46" height="46" rx="4" fill="#10233d"/><rect x="444" y="348" width="46" height="46" rx="4" fill="#163656"/><rect x="492" y="348" width="46" height="46" rx="4" fill="#797b7d"/><rect x="12" y="396" width="46" height="46" rx="4" fill="#797b7d"/><rect x="60" y="396" width="46" height="46" rx="4" fill="#797b7d"/><rect x="108" y="396" width="46" height="46" rx="4" fill="#797b7d"/><rect x="156" y="396" width="46" height="46" rx="4" fill="#797b7d"/><rect x="204" y="396" width="46" height="46" rx="4" fill="#797b7d"/><rect x="252" y="396" width="46" height="46" rx="4" fill="#22d3ee"/><rect x="300" y="396" width="46" height="46" rx="4" fill="#797b7d"/><rect x="348" y="396" width="46" height="46" rx="4" fill="#797b7d"/><rect x="396" y="396" width="46" height="46" rx="4" fill="#797b7d"/><rect x="444" y="396" width="46" height="46" rx="4" fill="#797b7d"/><rect x="492" y="396" width="46" height="46" rx="4" fill="#797b7d"/></svg>
