<svg xmlns="http://www.w3.org/2000/svg" width="384" height="64" viewBox="0 0 384 64">
  <metadata>cidadela-arcana/r1 tile-atlas.v1</metadata>
  <defs>
    <linearGradient id="stone" x1="0" y1="0" x2="1" y2="1"><stop stop-color="#9c9d97"/><stop offset="1" stop-color="#5b5d5f"/></linearGradient>
    <linearGradient id="crate" x1="0" y1="0" x2="1" y2="1"><stop stop-color="#cf7b45"/><stop offset="1" stop-color="#8a512c"/></linearGradient>
    <filter id="glow"><feGaussianBlur stdDeviation="2" result="blur"/><feMerge><feMergeNode in="blur"/><feMergeNode in="SourceGraphic"/></feMerge></filter>
  </defs>
  <g id="floor-base"><rect width="64" height="64" fill="#10233d"/><path d="M0 16h64M0 48h64M16 0v64M48 0v64" stroke="#92d0ff" stroke-opacity=".08"/></g>
  <g id="floor-lane" transform="translate(64)"><rect width="64" height="64" fill="#143152"/><path d="M4 32h56" stroke="#6ed6ff" stroke-opacity=".20" stroke-width="3"/></g>
  <g id="floor-spawn" transform="translate(128)"><rect width="64" height="64" fill="#163656"/><circle cx="32" cy="32" r="20" fill="none" stroke="#52bfe2" stroke-opacity=".72" stroke-width="3"/></g>
  <g id="portal" transform="translate(192)" filter="url(#glow)"><rect width="64" height="64" fill="#1f3a52"/><circle cx="32" cy="32" r="19" fill="none" stroke="#22d3ee" stroke-width="4"/><path d="M21 32h22M32 21v22" stroke="#a5f3fc" stroke-width="2"/></g>
  <g id="solid" transform="translate(256)"><rect x="4" y="8" width="56" height="52" rx="6" fill="url(#stone)" stroke="#18191c" stroke-width="4"/><path d="M8 20h48M20 10v48M44 10v48" stroke="#b9bfb9" stroke-opacity=".35"/></g>
  <g id="breakable" transform="translate(320)"><rect x="6" y="7" width="52" height="52" rx="4" fill="url(#crate)" stroke="#5e3118" stroke-width="4"/><path d="M10 14l44 38M54 14L10 52" stroke="#5e3118" stroke-width="6"/><path d="M14 12h36M14 54h36" stroke="#ffd6a8" stroke-opacity=".28"/></g>
</svg>
